<svg width="67" height="67" viewBox="0 0 67 67" fill="none" xmlns="http://www.w3.org/2000/svg">
<path d="M60.0866 0.574115C59.3306 0.82621 58.3856 1.51947 57.9446 2.08669C57.1255 3.03205 57.4405 3.53624 60.4647 6.62442C62.2917 8.45211 64.1818 10.0277 64.5598 10.0277C64.9378 10.0277 65.7569 9.01933 66.3869 7.75885C67.7729 4.79672 66.7649 2.08669 63.8038 0.82621C62.6067 0.322019 61.5987 -0.0561256 61.5357 0.00689888C61.4097 0.00689888 60.7797 0.258995 60.0866 0.574115Z" fill="white"/>
<path d="M35.8307 23.83L17.875 41.4137L21.0251 44.88C22.7892 46.7707 24.4903 48.4724 24.8683 48.6614C25.2463 48.8505 33.6256 40.9095 43.454 31.0777L61.3467 13.1789L57.8815 9.71261C55.9915 7.82189 54.2904 6.2463 54.1014 6.2463C53.9124 6.2463 45.7221 14.1873 35.8307 23.83Z" fill="white"/>
<path d="M6.5347 10.2798C4.0146 11.3512 1.3685 14.5024 0.549467 17.4645C0.0454474 18.9771 -0.0805575 26.54 0.0454474 39.649C0.234455 59.1234 0.234455 59.5645 1.68351 61.8334C2.50254 63.0939 4.0776 64.7325 5.21165 65.4258C7.22773 66.6862 8.23577 66.7493 29.0266 66.7493C50.5104 66.7493 50.7624 66.7493 52.9045 65.2997C54.1015 64.5434 55.6766 62.6527 56.4956 61.0771C57.8187 58.4301 57.8817 57.6108 57.8817 43.0523C57.8817 26.9181 57.6927 25.9728 54.9206 26.54C53.8495 26.729 53.7865 27.9895 53.4715 43.0523L53.1565 59.3124L51.3924 60.825L49.6284 62.3376H28.8376H8.04676L6.5347 60.825C4.45562 58.7452 4.20361 56.2243 4.45562 35.7415L4.64463 17.5906L6.40869 15.8889L8.10976 14.1242L23.9864 13.8091C37.8469 13.557 39.863 13.368 40.43 12.4226C40.934 11.6663 40.871 11.0991 40.304 10.4058C39.548 9.52349 37.3429 9.39745 23.9234 9.39745C12.4569 9.46047 7.92075 9.64954 6.5347 10.2798Z" fill="white"/>
<path d="M16.0476 46.6446C15.9216 47.1488 15.6066 48.5354 15.4176 49.7958L15.0396 52.0647L17.5596 51.6235C19.0087 51.3714 20.2688 50.9933 20.4578 50.8042C20.7098 50.6151 19.8277 49.4177 18.5677 48.0942C16.9926 46.5186 16.2366 46.0774 16.0476 46.6446Z" fill="white"/>
</svg>
