<svg width="174" height="174" viewBox="0 0 174 174" fill="none" xmlns="http://www.w3.org/2000/svg">
<g clip-path="url(#clip0_14_336)">
<path d="M81.5902 0.12413C61.6361 1.57857 44.3425 8.72658 29.6208 21.5682C27.2973 23.6079 22.1713 28.8049 20.3089 31.0397C1.04651 54.1688 -4.98407 85.2263 4.27464 113.801C7.4673 123.68 12.5224 133.01 19.1028 141.222C36.0771 162.4 61.7603 174.39 88.7737 173.769C94.3964 173.627 98.2276 173.255 103.229 172.297C118.182 169.459 131.928 162.861 143.581 152.928C146.047 150.818 151.403 145.408 153.443 142.96C165.238 128.824 171.96 112.612 173.663 94.1835C173.965 91.0263 173.965 83.0446 173.681 79.8165C171.996 60.9798 165.025 44.3602 152.751 30.0287C150.463 27.3327 145.603 22.5437 142.872 20.2911C128.398 8.31862 111.796 1.61404 93.137 0.177338C90.9554 0.0177155 83.5413 -0.0177612 81.5902 0.12413ZM92.7823 6.9174C106.085 7.92841 118.536 12.0079 129.569 18.9608C138.012 24.2642 145.514 31.1994 151.403 39.1101C172.209 67.1168 172.492 105.358 152.095 133.737C150.516 135.919 147.643 139.431 145.763 141.453L144.61 142.676L144.486 140.92C143.563 127.458 139.839 116.94 133.56 110.094C129.108 105.251 122.243 102.165 115.894 102.165C112.807 102.165 110.892 102.839 108.125 104.914C105.216 107.096 100.001 109.898 96.9327 110.927C93.2257 112.187 89.5542 112.736 85.8471 112.577C79.6569 112.311 74.389 110.377 67.4893 105.89C65.8398 104.808 63.7113 103.549 62.789 103.087C61.1395 102.272 61.0685 102.254 59.1175 102.201C53.1756 102.005 47.0386 104.24 42.3915 108.284C38.0636 112.045 34.2502 118.661 32.1217 126.057C30.9866 129.994 29.9223 135.83 29.5321 140.211C29.4789 140.885 29.3725 141.683 29.3193 141.949L29.2306 142.464L28.6098 141.861C27.7052 141.009 24.3529 137.036 22.8275 135.032C6.06608 112.843 2.11073 83.0978 12.4514 57.2018C21.0538 35.6868 38.7908 18.7125 60.5719 11.192C67.7908 8.6911 73.4844 7.55594 82.211 6.8642C83.967 6.72229 90.6184 6.75777 92.7823 6.9174Z" fill="white"/>
<path d="M82.8318 35.137C71.5688 36.2899 61.5119 43.2251 56.3327 53.3884C54.7009 56.581 53.6899 59.6318 53.1046 63.055C52.7144 65.2544 52.6612 71.0544 52.9982 73.1651C54.5945 82.9737 59.7914 91.0795 67.9505 96.4361C80.2067 104.471 95.7089 103.637 107.309 94.3076C113.836 89.0575 118.004 81.7853 119.317 73.378C119.689 70.877 119.689 65.7333 119.299 63.4098C118.093 56.1908 115.184 50.3908 110.235 45.2471C105.039 39.8728 98.1211 36.2899 90.9021 35.2966C88.8801 35.0128 84.8006 34.9419 82.8318 35.137Z" fill="white"/>
</g>
<defs>
<clipPath id="clip0_14_336">
<rect width="174" height="173.823" fill="white"/>
</clipPath>
</defs>
</svg>
